<mxfile host="app.diagrams.net" agent="Mozilla/5.0 (Windows NT 10.0; Win64; x64) AppleWebKit/537.36 (KHTML, like Gecko) Chrome/136.0.0.0 Safari/537.36 Edg/136.0.0.0" version="27.0.4">
  <diagram name="Page-1" id="FeIX3PLdOHhibgSUTGBO">
    <mxGraphModel dx="1231" dy="1429" grid="0" gridSize="10" guides="0" tooltips="1" connect="1" arrows="1" fold="1" page="0" pageScale="1" pageWidth="1100" pageHeight="850" background="#ffffff" math="0" shadow="0">
      <root>
        <mxCell id="0" />
        <mxCell id="1" parent="0" />
        <mxCell id="VzZZ3m_Xf3Fcte3o4Ce6-2" value="3. Login&amp;nbsp;" style="whiteSpace=wrap;html=1;labelBackgroundColor=none;rounded=0;" parent="1" vertex="1">
          <mxGeometry x="340" y="160" width="120" height="60" as="geometry" />
        </mxCell>
        <mxCell id="VzZZ3m_Xf3Fcte3o4Ce6-4" value="2, Sign Up" style="whiteSpace=wrap;html=1;labelBackgroundColor=none;rounded=0;" parent="1" vertex="1">
          <mxGeometry x="210" y="160" width="120" height="60" as="geometry" />
        </mxCell>
        <mxCell id="VzZZ3m_Xf3Fcte3o4Ce6-5" value="1. Open App" style="whiteSpace=wrap;html=1;labelBackgroundColor=none;rounded=0;" parent="1" vertex="1">
          <mxGeometry x="80" y="160" width="120" height="60" as="geometry" />
        </mxCell>
        <mxCell id="VzZZ3m_Xf3Fcte3o4Ce6-6" value="4.Acess Main Dashboard" style="whiteSpace=wrap;html=1;labelBackgroundColor=none;rounded=0;" parent="1" vertex="1">
          <mxGeometry x="470" y="160" width="120" height="60" as="geometry" />
        </mxCell>
        <mxCell id="VzZZ3m_Xf3Fcte3o4Ce6-7" value="0.Create and Log into Accoun" style="whiteSpace=wrap;html=1;labelBackgroundColor=none;rounded=0;" parent="1" vertex="1">
          <mxGeometry x="280" y="-20" width="120" height="60" as="geometry" />
        </mxCell>
        <mxCell id="VzZZ3m_Xf3Fcte3o4Ce6-10" value="" style="endArrow=none;html=1;rounded=0;labelBackgroundColor=none;fontColor=default;" parent="1" edge="1">
          <mxGeometry width="50" height="50" relative="1" as="geometry">
            <mxPoint x="80" y="150" as="sourcePoint" />
            <mxPoint x="590" y="150" as="targetPoint" />
          </mxGeometry>
        </mxCell>
        <mxCell id="VzZZ3m_Xf3Fcte3o4Ce6-11" value="" style="endArrow=none;html=1;rounded=0;entryX=0.5;entryY=1;entryDx=0;entryDy=0;labelBackgroundColor=none;fontColor=default;" parent="1" target="VzZZ3m_Xf3Fcte3o4Ce6-7" edge="1">
          <mxGeometry width="50" height="50" relative="1" as="geometry">
            <mxPoint x="340" y="150" as="sourcePoint" />
            <mxPoint x="450" y="220" as="targetPoint" />
          </mxGeometry>
        </mxCell>
        <mxCell id="VzZZ3m_Xf3Fcte3o4Ce6-14" value="2.1&amp;nbsp;&lt;div&gt;Enter Personal Details&lt;/div&gt;" style="whiteSpace=wrap;html=1;labelBackgroundColor=none;rounded=0;" parent="1" vertex="1">
          <mxGeometry x="-185" y="357.78" width="120" height="60" as="geometry" />
        </mxCell>
        <mxCell id="VzZZ3m_Xf3Fcte3o4Ce6-17" value="" style="endArrow=none;html=1;rounded=0;labelBackgroundColor=none;fontColor=default;" parent="1" edge="1">
          <mxGeometry width="50" height="50" relative="1" as="geometry">
            <mxPoint x="-190" y="347.78" as="sourcePoint" />
            <mxPoint x="325" y="347.78" as="targetPoint" />
          </mxGeometry>
        </mxCell>
        <mxCell id="VzZZ3m_Xf3Fcte3o4Ce6-18" value="2.2&amp;nbsp;&lt;div&gt;Tap on &quot;Receive OTP&quot;&amp;nbsp;&lt;/div&gt;" style="whiteSpace=wrap;html=1;labelBackgroundColor=none;rounded=0;" parent="1" vertex="1">
          <mxGeometry x="-55" y="357.78" width="120" height="60" as="geometry" />
        </mxCell>
        <mxCell id="86r4l7gdA-iXshZS6CT0-2" value="2.3&amp;nbsp;&lt;div&gt;Enter OTP&lt;/div&gt;" style="whiteSpace=wrap;html=1;labelBackgroundColor=none;rounded=0;" vertex="1" parent="1">
          <mxGeometry x="75" y="357.78" width="120" height="60" as="geometry" />
        </mxCell>
        <mxCell id="86r4l7gdA-iXshZS6CT0-3" value="2.4&lt;div&gt;&amp;nbsp;Tap Proceed&lt;/div&gt;" style="whiteSpace=wrap;html=1;labelBackgroundColor=none;rounded=0;" vertex="1" parent="1">
          <mxGeometry x="205" y="357.78" width="120" height="60" as="geometry" />
        </mxCell>
        <mxCell id="86r4l7gdA-iXshZS6CT0-6" value="" style="endArrow=none;html=1;rounded=0;" edge="1" parent="1">
          <mxGeometry width="50" height="50" relative="1" as="geometry">
            <mxPoint x="80" y="230" as="sourcePoint" />
            <mxPoint x="190" y="230" as="targetPoint" />
          </mxGeometry>
        </mxCell>
        <mxCell id="86r4l7gdA-iXshZS6CT0-7" value="" style="endArrow=none;html=1;rounded=0;" edge="1" parent="1">
          <mxGeometry width="50" height="50" relative="1" as="geometry">
            <mxPoint x="475" y="230" as="sourcePoint" />
            <mxPoint x="585" y="230" as="targetPoint" />
          </mxGeometry>
        </mxCell>
        <mxCell id="86r4l7gdA-iXshZS6CT0-8" value="3.1&amp;nbsp;&lt;div&gt;Enter Email and Password&lt;/div&gt;" style="whiteSpace=wrap;html=1;labelBackgroundColor=none;rounded=0;" vertex="1" parent="1">
          <mxGeometry x="350" y="310" width="120" height="60" as="geometry" />
        </mxCell>
        <mxCell id="86r4l7gdA-iXshZS6CT0-9" value="" style="endArrow=none;html=1;rounded=0;labelBackgroundColor=none;fontColor=default;" edge="1" parent="1">
          <mxGeometry width="50" height="50" relative="1" as="geometry">
            <mxPoint x="350" y="300" as="sourcePoint" />
            <mxPoint x="595" y="300" as="targetPoint" />
          </mxGeometry>
        </mxCell>
        <mxCell id="86r4l7gdA-iXshZS6CT0-10" value="3.2&amp;nbsp;&lt;div&gt;Login&lt;/div&gt;" style="whiteSpace=wrap;html=1;labelBackgroundColor=none;rounded=0;" vertex="1" parent="1">
          <mxGeometry x="480" y="310" width="120" height="60" as="geometry" />
        </mxCell>
        <mxCell id="86r4l7gdA-iXshZS6CT0-14" value="" style="endArrow=none;html=1;rounded=0;labelBackgroundColor=none;fontColor=default;" edge="1" parent="1">
          <mxGeometry width="50" height="50" relative="1" as="geometry">
            <mxPoint x="399" y="300" as="sourcePoint" />
            <mxPoint x="398.89" y="220" as="targetPoint" />
          </mxGeometry>
        </mxCell>
        <mxCell id="86r4l7gdA-iXshZS6CT0-16" value="" style="endArrow=none;html=1;rounded=0;entryX=0.25;entryY=1;entryDx=0;entryDy=0;" edge="1" parent="1" target="VzZZ3m_Xf3Fcte3o4Ce6-4">
          <mxGeometry width="50" height="50" relative="1" as="geometry">
            <mxPoint x="240" y="350" as="sourcePoint" />
            <mxPoint x="320" y="350" as="targetPoint" />
          </mxGeometry>
        </mxCell>
        <mxCell id="86r4l7gdA-iXshZS6CT0-17" value="3. Navigate to &quot;Book Ticket&quot;" style="whiteSpace=wrap;html=1;labelBackgroundColor=none;rounded=0;" vertex="1" parent="1">
          <mxGeometry x="920" y="210" width="120" height="60" as="geometry" />
        </mxCell>
        <mxCell id="86r4l7gdA-iXshZS6CT0-18" value="2. Log in" style="whiteSpace=wrap;html=1;labelBackgroundColor=none;rounded=0;" vertex="1" parent="1">
          <mxGeometry x="790" y="210" width="120" height="60" as="geometry" />
        </mxCell>
        <mxCell id="86r4l7gdA-iXshZS6CT0-19" value="1. Open App" style="whiteSpace=wrap;html=1;labelBackgroundColor=none;rounded=0;" vertex="1" parent="1">
          <mxGeometry x="660" y="210" width="120" height="60" as="geometry" />
        </mxCell>
        <mxCell id="86r4l7gdA-iXshZS6CT0-20" value="4. Select a Source metro station" style="whiteSpace=wrap;html=1;labelBackgroundColor=none;rounded=0;" vertex="1" parent="1">
          <mxGeometry x="1050" y="210" width="120" height="60" as="geometry" />
        </mxCell>
        <mxCell id="86r4l7gdA-iXshZS6CT0-21" value="0.Create and Log into Accoun" style="whiteSpace=wrap;html=1;labelBackgroundColor=none;rounded=0;" vertex="1" parent="1">
          <mxGeometry x="860" y="100" width="120" height="60" as="geometry" />
        </mxCell>
        <mxCell id="86r4l7gdA-iXshZS6CT0-22" value="" style="endArrow=none;html=1;rounded=0;labelBackgroundColor=none;fontColor=default;" edge="1" parent="1">
          <mxGeometry width="50" height="50" relative="1" as="geometry">
            <mxPoint x="660" y="200" as="sourcePoint" />
            <mxPoint x="1820" y="200" as="targetPoint" />
          </mxGeometry>
        </mxCell>
        <mxCell id="86r4l7gdA-iXshZS6CT0-23" value="" style="endArrow=none;html=1;rounded=0;entryX=0.5;entryY=1;entryDx=0;entryDy=0;labelBackgroundColor=none;fontColor=default;" edge="1" parent="1" target="86r4l7gdA-iXshZS6CT0-21">
          <mxGeometry width="50" height="50" relative="1" as="geometry">
            <mxPoint x="920" y="200" as="sourcePoint" />
            <mxPoint x="1030" y="270" as="targetPoint" />
          </mxGeometry>
        </mxCell>
        <mxCell id="86r4l7gdA-iXshZS6CT0-24" value="6.1&lt;div&gt;Select Wallet / Card / Mobile Bank&lt;/div&gt;" style="whiteSpace=wrap;html=1;labelBackgroundColor=none;rounded=0;" vertex="1" parent="1">
          <mxGeometry x="1095" y="370" width="120" height="60" as="geometry" />
        </mxCell>
        <mxCell id="86r4l7gdA-iXshZS6CT0-25" value="" style="endArrow=none;html=1;rounded=0;labelBackgroundColor=none;fontColor=default;" edge="1" parent="1">
          <mxGeometry width="50" height="50" relative="1" as="geometry">
            <mxPoint x="1100" y="360" as="sourcePoint" />
            <mxPoint x="1605" y="360" as="targetPoint" />
          </mxGeometry>
        </mxCell>
        <mxCell id="86r4l7gdA-iXshZS6CT0-26" value="6.2&lt;div&gt;&amp;nbsp;Confirm Payment&lt;/div&gt;" style="whiteSpace=wrap;html=1;labelBackgroundColor=none;rounded=0;" vertex="1" parent="1">
          <mxGeometry x="1225" y="370" width="120" height="60" as="geometry" />
        </mxCell>
        <mxCell id="86r4l7gdA-iXshZS6CT0-27" value="2.3&amp;nbsp;&lt;div&gt;Enter OTP&lt;/div&gt;" style="whiteSpace=wrap;html=1;labelBackgroundColor=none;rounded=0;" vertex="1" parent="1">
          <mxGeometry x="1355" y="370" width="120" height="60" as="geometry" />
        </mxCell>
        <mxCell id="86r4l7gdA-iXshZS6CT0-28" value="2.4&lt;div&gt;&amp;nbsp;Tap Proceed&lt;/div&gt;" style="whiteSpace=wrap;html=1;labelBackgroundColor=none;rounded=0;" vertex="1" parent="1">
          <mxGeometry x="1485" y="370" width="120" height="60" as="geometry" />
        </mxCell>
        <mxCell id="86r4l7gdA-iXshZS6CT0-29" value="" style="endArrow=none;html=1;rounded=0;" edge="1" parent="1">
          <mxGeometry width="50" height="50" relative="1" as="geometry">
            <mxPoint x="660" y="280" as="sourcePoint" />
            <mxPoint x="780" y="280" as="targetPoint" />
          </mxGeometry>
        </mxCell>
        <mxCell id="86r4l7gdA-iXshZS6CT0-36" value="" style="endArrow=none;html=1;rounded=0;" edge="1" parent="1">
          <mxGeometry width="50" height="50" relative="1" as="geometry">
            <mxPoint x="790" y="280" as="sourcePoint" />
            <mxPoint x="910" y="280" as="targetPoint" />
          </mxGeometry>
        </mxCell>
        <mxCell id="86r4l7gdA-iXshZS6CT0-37" value="" style="endArrow=none;html=1;rounded=0;" edge="1" parent="1">
          <mxGeometry width="50" height="50" relative="1" as="geometry">
            <mxPoint x="920" y="280" as="sourcePoint" />
            <mxPoint x="1040" y="280" as="targetPoint" />
          </mxGeometry>
        </mxCell>
        <mxCell id="86r4l7gdA-iXshZS6CT0-38" value="" style="endArrow=none;html=1;rounded=0;" edge="1" parent="1">
          <mxGeometry width="50" height="50" relative="1" as="geometry">
            <mxPoint x="1050" y="280" as="sourcePoint" />
            <mxPoint x="1170" y="280" as="targetPoint" />
          </mxGeometry>
        </mxCell>
        <mxCell id="86r4l7gdA-iXshZS6CT0-39" value="5. Review fare Details" style="whiteSpace=wrap;html=1;labelBackgroundColor=none;rounded=0;" vertex="1" parent="1">
          <mxGeometry x="1180" y="210" width="120" height="60" as="geometry" />
        </mxCell>
        <mxCell id="86r4l7gdA-iXshZS6CT0-40" value="6. Choose Payment Method" style="whiteSpace=wrap;html=1;labelBackgroundColor=none;rounded=0;" vertex="1" parent="1">
          <mxGeometry x="1310" y="210" width="120" height="60" as="geometry" />
        </mxCell>
        <mxCell id="86r4l7gdA-iXshZS6CT0-41" value="" style="endArrow=none;html=1;rounded=0;" edge="1" parent="1">
          <mxGeometry width="50" height="50" relative="1" as="geometry">
            <mxPoint x="1180" y="280" as="sourcePoint" />
            <mxPoint x="1300" y="280" as="targetPoint" />
          </mxGeometry>
        </mxCell>
        <mxCell id="86r4l7gdA-iXshZS6CT0-42" value="" style="endArrow=none;html=1;rounded=0;entryX=0.5;entryY=1;entryDx=0;entryDy=0;" edge="1" parent="1" target="86r4l7gdA-iXshZS6CT0-40">
          <mxGeometry width="50" height="50" relative="1" as="geometry">
            <mxPoint x="1370" y="360" as="sourcePoint" />
            <mxPoint x="1360" y="260" as="targetPoint" />
          </mxGeometry>
        </mxCell>
        <mxCell id="86r4l7gdA-iXshZS6CT0-44" value="7. View Ticket Confirmation" style="whiteSpace=wrap;html=1;labelBackgroundColor=none;rounded=0;" vertex="1" parent="1">
          <mxGeometry x="1440" y="210" width="120" height="60" as="geometry" />
        </mxCell>
        <mxCell id="86r4l7gdA-iXshZS6CT0-45" value="8. Tap Generate QR&amp;nbsp;" style="whiteSpace=wrap;html=1;labelBackgroundColor=none;rounded=0;" vertex="1" parent="1">
          <mxGeometry x="1570" y="210" width="120" height="60" as="geometry" />
        </mxCell>
        <mxCell id="86r4l7gdA-iXshZS6CT0-46" value="9. View and save QR code" style="whiteSpace=wrap;html=1;labelBackgroundColor=none;rounded=0;" vertex="1" parent="1">
          <mxGeometry x="1700" y="210" width="120" height="60" as="geometry" />
        </mxCell>
        <mxCell id="86r4l7gdA-iXshZS6CT0-47" value="" style="endArrow=none;html=1;rounded=0;" edge="1" parent="1">
          <mxGeometry width="50" height="50" relative="1" as="geometry">
            <mxPoint x="1440" y="280" as="sourcePoint" />
            <mxPoint x="1560" y="280" as="targetPoint" />
          </mxGeometry>
        </mxCell>
        <mxCell id="86r4l7gdA-iXshZS6CT0-48" value="" style="endArrow=none;html=1;rounded=0;" edge="1" parent="1">
          <mxGeometry width="50" height="50" relative="1" as="geometry">
            <mxPoint x="1570" y="280" as="sourcePoint" />
            <mxPoint x="1690" y="280" as="targetPoint" />
          </mxGeometry>
        </mxCell>
        <mxCell id="86r4l7gdA-iXshZS6CT0-49" value="" style="endArrow=none;html=1;rounded=0;" edge="1" parent="1">
          <mxGeometry width="50" height="50" relative="1" as="geometry">
            <mxPoint x="1700" y="280" as="sourcePoint" />
            <mxPoint x="1820" y="280" as="targetPoint" />
          </mxGeometry>
        </mxCell>
        <mxCell id="86r4l7gdA-iXshZS6CT0-50" value="3. Navigate to &quot;Book Ticket&quot;" style="whiteSpace=wrap;html=1;labelBackgroundColor=none;rounded=0;" vertex="1" parent="1">
          <mxGeometry x="2130" y="210" width="120" height="60" as="geometry" />
        </mxCell>
        <mxCell id="86r4l7gdA-iXshZS6CT0-51" value="2. Log in" style="whiteSpace=wrap;html=1;labelBackgroundColor=none;rounded=0;" vertex="1" parent="1">
          <mxGeometry x="2000" y="210" width="120" height="60" as="geometry" />
        </mxCell>
        <mxCell id="86r4l7gdA-iXshZS6CT0-52" value="1. Open App" style="whiteSpace=wrap;html=1;labelBackgroundColor=none;rounded=0;" vertex="1" parent="1">
          <mxGeometry x="1870" y="210" width="120" height="60" as="geometry" />
        </mxCell>
        <mxCell id="86r4l7gdA-iXshZS6CT0-53" value="4. Select a Source metro station" style="whiteSpace=wrap;html=1;labelBackgroundColor=none;rounded=0;" vertex="1" parent="1">
          <mxGeometry x="2260" y="210" width="120" height="60" as="geometry" />
        </mxCell>
        <mxCell id="86r4l7gdA-iXshZS6CT0-54" value="0.Create and Log into Accoun" style="whiteSpace=wrap;html=1;labelBackgroundColor=none;rounded=0;" vertex="1" parent="1">
          <mxGeometry x="2070" y="100" width="120" height="60" as="geometry" />
        </mxCell>
        <mxCell id="86r4l7gdA-iXshZS6CT0-55" value="" style="endArrow=none;html=1;rounded=0;labelBackgroundColor=none;fontColor=default;" edge="1" parent="1">
          <mxGeometry width="50" height="50" relative="1" as="geometry">
            <mxPoint x="1870" y="200" as="sourcePoint" />
            <mxPoint x="3030" y="200" as="targetPoint" />
          </mxGeometry>
        </mxCell>
        <mxCell id="86r4l7gdA-iXshZS6CT0-56" value="" style="endArrow=none;html=1;rounded=0;entryX=0.5;entryY=1;entryDx=0;entryDy=0;labelBackgroundColor=none;fontColor=default;" edge="1" parent="1" target="86r4l7gdA-iXshZS6CT0-54">
          <mxGeometry width="50" height="50" relative="1" as="geometry">
            <mxPoint x="2130" y="200" as="sourcePoint" />
            <mxPoint x="2240" y="270" as="targetPoint" />
          </mxGeometry>
        </mxCell>
        <mxCell id="86r4l7gdA-iXshZS6CT0-57" value="6.1&lt;div&gt;Select Wallet / Card / Mobile Bank&lt;/div&gt;" style="whiteSpace=wrap;html=1;labelBackgroundColor=none;rounded=0;" vertex="1" parent="1">
          <mxGeometry x="2305" y="370" width="120" height="60" as="geometry" />
        </mxCell>
        <mxCell id="86r4l7gdA-iXshZS6CT0-58" value="" style="endArrow=none;html=1;rounded=0;labelBackgroundColor=none;fontColor=default;" edge="1" parent="1">
          <mxGeometry width="50" height="50" relative="1" as="geometry">
            <mxPoint x="2310" y="360" as="sourcePoint" />
            <mxPoint x="2815" y="360" as="targetPoint" />
          </mxGeometry>
        </mxCell>
        <mxCell id="86r4l7gdA-iXshZS6CT0-59" value="6.2&lt;div&gt;&amp;nbsp;Confirm Payment&lt;/div&gt;" style="whiteSpace=wrap;html=1;labelBackgroundColor=none;rounded=0;" vertex="1" parent="1">
          <mxGeometry x="2435" y="370" width="120" height="60" as="geometry" />
        </mxCell>
        <mxCell id="86r4l7gdA-iXshZS6CT0-60" value="2.3&amp;nbsp;&lt;div&gt;Enter OTP&lt;/div&gt;" style="whiteSpace=wrap;html=1;labelBackgroundColor=none;rounded=0;" vertex="1" parent="1">
          <mxGeometry x="2565" y="370" width="120" height="60" as="geometry" />
        </mxCell>
        <mxCell id="86r4l7gdA-iXshZS6CT0-61" value="2.4&lt;div&gt;&amp;nbsp;Tap Proceed&lt;/div&gt;" style="whiteSpace=wrap;html=1;labelBackgroundColor=none;rounded=0;" vertex="1" parent="1">
          <mxGeometry x="2695" y="370" width="120" height="60" as="geometry" />
        </mxCell>
        <mxCell id="86r4l7gdA-iXshZS6CT0-62" value="" style="endArrow=none;html=1;rounded=0;" edge="1" parent="1">
          <mxGeometry width="50" height="50" relative="1" as="geometry">
            <mxPoint x="1870" y="280" as="sourcePoint" />
            <mxPoint x="1990" y="280" as="targetPoint" />
          </mxGeometry>
        </mxCell>
        <mxCell id="86r4l7gdA-iXshZS6CT0-63" value="" style="endArrow=none;html=1;rounded=0;" edge="1" parent="1">
          <mxGeometry width="50" height="50" relative="1" as="geometry">
            <mxPoint x="2000" y="280" as="sourcePoint" />
            <mxPoint x="2120" y="280" as="targetPoint" />
          </mxGeometry>
        </mxCell>
        <mxCell id="86r4l7gdA-iXshZS6CT0-64" value="" style="endArrow=none;html=1;rounded=0;" edge="1" parent="1">
          <mxGeometry width="50" height="50" relative="1" as="geometry">
            <mxPoint x="2130" y="280" as="sourcePoint" />
            <mxPoint x="2250" y="280" as="targetPoint" />
          </mxGeometry>
        </mxCell>
        <mxCell id="86r4l7gdA-iXshZS6CT0-65" value="" style="endArrow=none;html=1;rounded=0;" edge="1" parent="1">
          <mxGeometry width="50" height="50" relative="1" as="geometry">
            <mxPoint x="2260" y="280" as="sourcePoint" />
            <mxPoint x="2380" y="280" as="targetPoint" />
          </mxGeometry>
        </mxCell>
        <mxCell id="86r4l7gdA-iXshZS6CT0-66" value="5. Review fare Details" style="whiteSpace=wrap;html=1;labelBackgroundColor=none;rounded=0;" vertex="1" parent="1">
          <mxGeometry x="2390" y="210" width="120" height="60" as="geometry" />
        </mxCell>
        <mxCell id="86r4l7gdA-iXshZS6CT0-67" value="6. Choose Payment Method" style="whiteSpace=wrap;html=1;labelBackgroundColor=none;rounded=0;" vertex="1" parent="1">
          <mxGeometry x="2520" y="210" width="120" height="60" as="geometry" />
        </mxCell>
        <mxCell id="86r4l7gdA-iXshZS6CT0-68" value="" style="endArrow=none;html=1;rounded=0;" edge="1" parent="1">
          <mxGeometry width="50" height="50" relative="1" as="geometry">
            <mxPoint x="2390" y="280" as="sourcePoint" />
            <mxPoint x="2510" y="280" as="targetPoint" />
          </mxGeometry>
        </mxCell>
        <mxCell id="86r4l7gdA-iXshZS6CT0-69" value="" style="endArrow=none;html=1;rounded=0;entryX=0.5;entryY=1;entryDx=0;entryDy=0;" edge="1" parent="1" target="86r4l7gdA-iXshZS6CT0-67">
          <mxGeometry width="50" height="50" relative="1" as="geometry">
            <mxPoint x="2580" y="360" as="sourcePoint" />
            <mxPoint x="2570" y="260" as="targetPoint" />
          </mxGeometry>
        </mxCell>
        <mxCell id="86r4l7gdA-iXshZS6CT0-70" value="7. View Ticket Confirmation" style="whiteSpace=wrap;html=1;labelBackgroundColor=none;rounded=0;" vertex="1" parent="1">
          <mxGeometry x="2650" y="210" width="120" height="60" as="geometry" />
        </mxCell>
        <mxCell id="86r4l7gdA-iXshZS6CT0-71" value="8. Tap Generate QR&amp;nbsp;" style="whiteSpace=wrap;html=1;labelBackgroundColor=none;rounded=0;" vertex="1" parent="1">
          <mxGeometry x="2780" y="210" width="120" height="60" as="geometry" />
        </mxCell>
        <mxCell id="86r4l7gdA-iXshZS6CT0-72" value="9. View and save QR code" style="whiteSpace=wrap;html=1;labelBackgroundColor=none;rounded=0;" vertex="1" parent="1">
          <mxGeometry x="2910" y="210" width="120" height="60" as="geometry" />
        </mxCell>
        <mxCell id="86r4l7gdA-iXshZS6CT0-73" value="" style="endArrow=none;html=1;rounded=0;" edge="1" parent="1">
          <mxGeometry width="50" height="50" relative="1" as="geometry">
            <mxPoint x="2650" y="280" as="sourcePoint" />
            <mxPoint x="2770" y="280" as="targetPoint" />
          </mxGeometry>
        </mxCell>
        <mxCell id="86r4l7gdA-iXshZS6CT0-74" value="" style="endArrow=none;html=1;rounded=0;" edge="1" parent="1">
          <mxGeometry width="50" height="50" relative="1" as="geometry">
            <mxPoint x="2780" y="280" as="sourcePoint" />
            <mxPoint x="2900" y="280" as="targetPoint" />
          </mxGeometry>
        </mxCell>
        <mxCell id="86r4l7gdA-iXshZS6CT0-75" value="" style="endArrow=none;html=1;rounded=0;" edge="1" parent="1">
          <mxGeometry width="50" height="50" relative="1" as="geometry">
            <mxPoint x="2910" y="280" as="sourcePoint" />
            <mxPoint x="3030" y="280" as="targetPoint" />
          </mxGeometry>
        </mxCell>
        <mxCell id="86r4l7gdA-iXshZS6CT0-76" value="3.Navigate to Route Finder" style="whiteSpace=wrap;html=1;labelBackgroundColor=none;rounded=0;" vertex="1" parent="1">
          <mxGeometry x="3400" y="210" width="120" height="60" as="geometry" />
        </mxCell>
        <mxCell id="86r4l7gdA-iXshZS6CT0-77" value="2. Log in" style="whiteSpace=wrap;html=1;labelBackgroundColor=none;rounded=0;" vertex="1" parent="1">
          <mxGeometry x="3270" y="210" width="120" height="60" as="geometry" />
        </mxCell>
        <mxCell id="86r4l7gdA-iXshZS6CT0-78" value="1. Open App" style="whiteSpace=wrap;html=1;labelBackgroundColor=none;rounded=0;" vertex="1" parent="1">
          <mxGeometry x="3140" y="210" width="120" height="60" as="geometry" />
        </mxCell>
        <mxCell id="86r4l7gdA-iXshZS6CT0-79" value="4. Enter Current Location or allow GPS" style="whiteSpace=wrap;html=1;labelBackgroundColor=none;rounded=0;" vertex="1" parent="1">
          <mxGeometry x="3530" y="210" width="120" height="60" as="geometry" />
        </mxCell>
        <mxCell id="86r4l7gdA-iXshZS6CT0-80" value="0.Find and Plan Route" style="whiteSpace=wrap;html=1;labelBackgroundColor=none;rounded=0;" vertex="1" parent="1">
          <mxGeometry x="3340" y="100" width="120" height="60" as="geometry" />
        </mxCell>
        <mxCell id="86r4l7gdA-iXshZS6CT0-81" value="" style="endArrow=none;html=1;rounded=0;labelBackgroundColor=none;fontColor=default;" edge="1" parent="1">
          <mxGeometry width="50" height="50" relative="1" as="geometry">
            <mxPoint x="3140" y="200" as="sourcePoint" />
            <mxPoint x="4300" y="200" as="targetPoint" />
          </mxGeometry>
        </mxCell>
        <mxCell id="86r4l7gdA-iXshZS6CT0-82" value="" style="endArrow=none;html=1;rounded=0;entryX=0.5;entryY=1;entryDx=0;entryDy=0;labelBackgroundColor=none;fontColor=default;" edge="1" parent="1" target="86r4l7gdA-iXshZS6CT0-80">
          <mxGeometry width="50" height="50" relative="1" as="geometry">
            <mxPoint x="3400" y="200" as="sourcePoint" />
            <mxPoint x="3510" y="270" as="targetPoint" />
          </mxGeometry>
        </mxCell>
        <mxCell id="86r4l7gdA-iXshZS6CT0-83" value="6.1&lt;div&gt;Select Wallet / Card / Mobile Bank&lt;/div&gt;" style="whiteSpace=wrap;html=1;labelBackgroundColor=none;rounded=0;" vertex="1" parent="1">
          <mxGeometry x="3575" y="370" width="120" height="60" as="geometry" />
        </mxCell>
        <mxCell id="86r4l7gdA-iXshZS6CT0-84" value="" style="endArrow=none;html=1;rounded=0;labelBackgroundColor=none;fontColor=default;" edge="1" parent="1">
          <mxGeometry width="50" height="50" relative="1" as="geometry">
            <mxPoint x="3580" y="360" as="sourcePoint" />
            <mxPoint x="4085" y="360" as="targetPoint" />
          </mxGeometry>
        </mxCell>
        <mxCell id="86r4l7gdA-iXshZS6CT0-85" value="6.2&lt;div&gt;&amp;nbsp;Confirm Payment&lt;/div&gt;" style="whiteSpace=wrap;html=1;labelBackgroundColor=none;rounded=0;" vertex="1" parent="1">
          <mxGeometry x="3705" y="370" width="120" height="60" as="geometry" />
        </mxCell>
        <mxCell id="86r4l7gdA-iXshZS6CT0-86" value="2.3&amp;nbsp;&lt;div&gt;Enter OTP&lt;/div&gt;" style="whiteSpace=wrap;html=1;labelBackgroundColor=none;rounded=0;" vertex="1" parent="1">
          <mxGeometry x="3835" y="370" width="120" height="60" as="geometry" />
        </mxCell>
        <mxCell id="86r4l7gdA-iXshZS6CT0-87" value="2.4&lt;div&gt;&amp;nbsp;Tap Proceed&lt;/div&gt;" style="whiteSpace=wrap;html=1;labelBackgroundColor=none;rounded=0;" vertex="1" parent="1">
          <mxGeometry x="3965" y="370" width="120" height="60" as="geometry" />
        </mxCell>
        <mxCell id="86r4l7gdA-iXshZS6CT0-88" value="" style="endArrow=none;html=1;rounded=0;" edge="1" parent="1">
          <mxGeometry width="50" height="50" relative="1" as="geometry">
            <mxPoint x="3140" y="280" as="sourcePoint" />
            <mxPoint x="3260" y="280" as="targetPoint" />
          </mxGeometry>
        </mxCell>
        <mxCell id="86r4l7gdA-iXshZS6CT0-89" value="" style="endArrow=none;html=1;rounded=0;" edge="1" parent="1">
          <mxGeometry width="50" height="50" relative="1" as="geometry">
            <mxPoint x="3270" y="280" as="sourcePoint" />
            <mxPoint x="3390" y="280" as="targetPoint" />
          </mxGeometry>
        </mxCell>
        <mxCell id="86r4l7gdA-iXshZS6CT0-90" value="" style="endArrow=none;html=1;rounded=0;" edge="1" parent="1">
          <mxGeometry width="50" height="50" relative="1" as="geometry">
            <mxPoint x="3400" y="280" as="sourcePoint" />
            <mxPoint x="3520" y="280" as="targetPoint" />
          </mxGeometry>
        </mxCell>
        <mxCell id="86r4l7gdA-iXshZS6CT0-91" value="" style="endArrow=none;html=1;rounded=0;" edge="1" parent="1">
          <mxGeometry width="50" height="50" relative="1" as="geometry">
            <mxPoint x="3530" y="280" as="sourcePoint" />
            <mxPoint x="3650" y="280" as="targetPoint" />
          </mxGeometry>
        </mxCell>
        <mxCell id="86r4l7gdA-iXshZS6CT0-92" value="5. Enter Destination" style="whiteSpace=wrap;html=1;labelBackgroundColor=none;rounded=0;" vertex="1" parent="1">
          <mxGeometry x="3660" y="210" width="120" height="60" as="geometry" />
        </mxCell>
        <mxCell id="86r4l7gdA-iXshZS6CT0-93" value="6.View Suggested and recommended routes" style="whiteSpace=wrap;html=1;labelBackgroundColor=none;rounded=0;" vertex="1" parent="1">
          <mxGeometry x="3790" y="210" width="120" height="60" as="geometry" />
        </mxCell>
        <mxCell id="86r4l7gdA-iXshZS6CT0-94" value="" style="endArrow=none;html=1;rounded=0;" edge="1" parent="1">
          <mxGeometry width="50" height="50" relative="1" as="geometry">
            <mxPoint x="3660" y="280" as="sourcePoint" />
            <mxPoint x="3780" y="280" as="targetPoint" />
          </mxGeometry>
        </mxCell>
        <mxCell id="86r4l7gdA-iXshZS6CT0-95" value="" style="endArrow=none;html=1;rounded=0;entryX=0.5;entryY=1;entryDx=0;entryDy=0;" edge="1" parent="1">
          <mxGeometry width="50" height="50" relative="1" as="geometry">
            <mxPoint x="3638" y="612" as="sourcePoint" />
            <mxPoint x="3638" y="522" as="targetPoint" />
          </mxGeometry>
        </mxCell>
        <mxCell id="86r4l7gdA-iXshZS6CT0-96" value="7. Review Details" style="whiteSpace=wrap;html=1;labelBackgroundColor=none;rounded=0;" vertex="1" parent="1">
          <mxGeometry x="3920" y="210" width="120" height="60" as="geometry" />
        </mxCell>
        <mxCell id="86r4l7gdA-iXshZS6CT0-97" value="8. Tap Generate QR&amp;nbsp;" style="whiteSpace=wrap;html=1;labelBackgroundColor=none;rounded=0;" vertex="1" parent="1">
          <mxGeometry x="4050" y="210" width="120" height="60" as="geometry" />
        </mxCell>
        <mxCell id="86r4l7gdA-iXshZS6CT0-98" value="9. View and save QR code" style="whiteSpace=wrap;html=1;labelBackgroundColor=none;rounded=0;" vertex="1" parent="1">
          <mxGeometry x="4180" y="210" width="120" height="60" as="geometry" />
        </mxCell>
        <mxCell id="86r4l7gdA-iXshZS6CT0-99" value="" style="endArrow=none;html=1;rounded=0;" edge="1" parent="1">
          <mxGeometry width="50" height="50" relative="1" as="geometry">
            <mxPoint x="3792" y="279" as="sourcePoint" />
            <mxPoint x="3912" y="279" as="targetPoint" />
          </mxGeometry>
        </mxCell>
        <mxCell id="86r4l7gdA-iXshZS6CT0-100" value="" style="endArrow=none;html=1;rounded=0;" edge="1" parent="1">
          <mxGeometry width="50" height="50" relative="1" as="geometry">
            <mxPoint x="4050" y="280" as="sourcePoint" />
            <mxPoint x="4170" y="280" as="targetPoint" />
          </mxGeometry>
        </mxCell>
        <mxCell id="86r4l7gdA-iXshZS6CT0-101" value="" style="endArrow=none;html=1;rounded=0;" edge="1" parent="1">
          <mxGeometry width="50" height="50" relative="1" as="geometry">
            <mxPoint x="4180" y="280" as="sourcePoint" />
            <mxPoint x="4300" y="280" as="targetPoint" />
          </mxGeometry>
        </mxCell>
        <mxCell id="86r4l7gdA-iXshZS6CT0-102" value="" style="endArrow=none;html=1;rounded=0;" edge="1" parent="1">
          <mxGeometry width="50" height="50" relative="1" as="geometry">
            <mxPoint x="355" y="380" as="sourcePoint" />
            <mxPoint x="465" y="380" as="targetPoint" />
          </mxGeometry>
        </mxCell>
        <mxCell id="86r4l7gdA-iXshZS6CT0-103" value="" style="endArrow=none;html=1;rounded=0;" edge="1" parent="1">
          <mxGeometry width="50" height="50" relative="1" as="geometry">
            <mxPoint x="485" y="380" as="sourcePoint" />
            <mxPoint x="595" y="380" as="targetPoint" />
          </mxGeometry>
        </mxCell>
        <mxCell id="86r4l7gdA-iXshZS6CT0-104" value="" style="endArrow=none;html=1;rounded=0;" edge="1" parent="1">
          <mxGeometry width="50" height="50" relative="1" as="geometry">
            <mxPoint x="-180" y="427.78" as="sourcePoint" />
            <mxPoint x="-70" y="427.78" as="targetPoint" />
          </mxGeometry>
        </mxCell>
        <mxCell id="86r4l7gdA-iXshZS6CT0-105" value="" style="endArrow=none;html=1;rounded=0;" edge="1" parent="1">
          <mxGeometry width="50" height="50" relative="1" as="geometry">
            <mxPoint x="-50" y="427.78" as="sourcePoint" />
            <mxPoint x="60" y="427.78" as="targetPoint" />
          </mxGeometry>
        </mxCell>
        <mxCell id="86r4l7gdA-iXshZS6CT0-106" value="" style="endArrow=none;html=1;rounded=0;" edge="1" parent="1">
          <mxGeometry width="50" height="50" relative="1" as="geometry">
            <mxPoint x="80" y="427.78" as="sourcePoint" />
            <mxPoint x="190" y="427.78" as="targetPoint" />
          </mxGeometry>
        </mxCell>
        <mxCell id="86r4l7gdA-iXshZS6CT0-107" value="" style="endArrow=none;html=1;rounded=0;" edge="1" parent="1">
          <mxGeometry width="50" height="50" relative="1" as="geometry">
            <mxPoint x="210" y="427.78" as="sourcePoint" />
            <mxPoint x="320" y="427.78" as="targetPoint" />
          </mxGeometry>
        </mxCell>
        <mxCell id="86r4l7gdA-iXshZS6CT0-108" value="Plan 0&lt;div&gt;do 1&amp;nbsp;&lt;/div&gt;&lt;div&gt;if not yet not registered yet 2&lt;/div&gt;&lt;div&gt;then 3 and 4&lt;/div&gt;" style="text;html=1;align=left;verticalAlign=middle;resizable=0;points=[];autosize=1;strokeColor=none;fillColor=none;" vertex="1" parent="1">
          <mxGeometry x="350" y="50" width="170" height="70" as="geometry" />
        </mxCell>
        <mxCell id="86r4l7gdA-iXshZS6CT0-109" value="Plan 2&lt;div&gt;do 2.1 - 2.2 - 2.3 - 2.4&lt;/div&gt;" style="text;html=1;align=left;verticalAlign=middle;resizable=0;points=[];autosize=1;strokeColor=none;fillColor=none;" vertex="1" parent="1">
          <mxGeometry x="90" y="280" width="140" height="40" as="geometry" />
        </mxCell>
        <mxCell id="86r4l7gdA-iXshZS6CT0-111" value="Plan 3&lt;div&gt;do 3.1-3.2&lt;/div&gt;" style="text;html=1;align=center;verticalAlign=middle;resizable=0;points=[];autosize=1;strokeColor=none;fillColor=none;" vertex="1" parent="1">
          <mxGeometry x="410" y="240" width="80" height="40" as="geometry" />
        </mxCell>
      </root>
    </mxGraphModel>
  </diagram>
</mxfile>
